<svg xmlns="http://www.w3.org/2000/svg" xmlns:xlink="http://www.w3.org/1999/xlink" width="190" zoomAndPan="magnify" viewBox="0 0 142.5 44.999999" height="60" preserveAspectRatio="xMidYMid meet" version="1.0"><defs><g/></defs><g fill="#ff5055" fill-opacity="0.302"><g transform="translate(5.97607, 31.428211)"><g><path d="M 3.3125 -3.234375 C 6.0625 -3.429688 8.566406 -4.085938 10.828125 -5.203125 L 11.859375 -2.21875 C 9.003906 -0.457031 5.703125 0.554688 1.953125 0.828125 L -1.359375 -2.25 C -0.578125 -5.65625 0.8125 -8.742188 2.8125 -11.515625 C 5.09375 -14.628906 7.863281 -16.875 11.125 -18.25 L 16.078125 -14.671875 C 15.628906 -13.191406 14.8125 -11.476562 13.625 -9.53125 C 13.300781 -8.988281 12.988281 -8.507812 12.6875 -8.09375 L 9.65625 -9.765625 C 10.84375 -11.796875 11.632812 -13.507812 12.03125 -14.90625 C 9.851562 -13.832031 7.929688 -12.179688 6.265625 -9.953125 C 4.660156 -7.773438 3.675781 -5.535156 3.3125 -3.234375 Z M 3.3125 -3.234375 "/></g></g></g><g fill="#ff5055" fill-opacity="0.302"><g transform="translate(21.849447, 31.428211)"><g><path d="M 4.90625 -9.109375 C 6.53125 -10.347656 8.394531 -11.523438 10.5 -12.640625 L 13.65625 -10.15625 C 13.082031 -7.6875 12.070312 -5.457031 10.625 -3.46875 C 12.363281 -4.0625 14.335938 -4.925781 16.546875 -6.0625 L 17.109375 -3.421875 C 16.390625 -2.953125 15.300781 -2.351562 13.84375 -1.625 C 11.332031 -0.382812 9.597656 0.390625 8.640625 0.703125 L 5.40625 -1.59375 C 6.445312 -2.84375 7.320312 -4.082031 8.03125 -5.3125 C 8.738281 -6.539062 9.195312 -7.613281 9.40625 -8.53125 C 7.125 -7.40625 5.617188 -6.609375 4.890625 -6.140625 C 4.171875 -5.671875 3.523438 -5.234375 2.953125 -4.828125 C 2.097656 -2.722656 1.441406 -0.878906 0.984375 0.703125 L -2.109375 -1.3125 C -1.535156 -3.269531 -0.273438 -6.207031 1.671875 -10.125 C 3.441406 -13.71875 5.035156 -16.554688 6.453125 -18.640625 L 9.109375 -16.625 C 7.648438 -14.257812 6.25 -11.753906 4.90625 -9.109375 Z M 4.90625 -9.109375 "/></g></g></g><g fill="#ff5055" fill-opacity="0.302"><g transform="translate(38.271084, 31.428211)"><g><path d="M 6.34375 -14.78125 C 5.945312 -15.195312 5.75 -15.703125 5.75 -16.296875 C 5.75 -16.890625 5.953125 -17.390625 6.359375 -17.796875 C 6.765625 -18.203125 7.265625 -18.40625 7.859375 -18.40625 C 8.453125 -18.40625 8.953125 -18.203125 9.359375 -17.796875 C 9.765625 -17.390625 9.96875 -16.890625 9.96875 -16.296875 C 9.96875 -15.703125 9.765625 -15.195312 9.359375 -14.78125 C 8.953125 -14.375 8.453125 -14.171875 7.859375 -14.171875 C 7.265625 -14.171875 6.757812 -14.375 6.34375 -14.78125 Z M 2.40625 -3.296875 C 4.175781 -3.828125 6.304688 -4.75 8.796875 -6.0625 L 9.34375 -3.421875 C 7.65625 -2.328125 5.617188 -1.253906 3.234375 -0.203125 C 2.429688 0.140625 1.648438 0.441406 0.890625 0.703125 L -2.109375 -2.0625 C -1.253906 -4.394531 0.273438 -7.300781 2.484375 -10.78125 C 3.140625 -11.820312 3.78125 -12.738281 4.40625 -13.53125 L 7 -11.625 C 5.726562 -9.875 4.492188 -7.773438 3.296875 -5.328125 C 2.941406 -4.597656 2.644531 -3.921875 2.40625 -3.296875 Z M 2.40625 -3.296875 "/></g></g></g><g fill="#ff5055" fill-opacity="0.302"><g transform="translate(46.938782, 31.428211)"><g><path d="M 2.875 -2.6875 C 7.132812 -3.25 10.84375 -4.375 14 -6.0625 L 14.5625 -3.421875 C 11.882812 -1.734375 8.910156 -0.503906 5.640625 0.265625 C 4.546875 0.503906 3.46875 0.648438 2.40625 0.703125 L -0.828125 -2.296875 C -0.828125 -3.535156 -0.75 -4.492188 -0.59375 -5.171875 C 0.0820312 -8.046875 1.742188 -10.359375 4.390625 -12.109375 C 5.566406 -12.898438 6.765625 -13.484375 7.984375 -13.859375 L 12.171875 -10.75 C 12.078125 -10.351562 11.832031 -9.71875 11.4375 -8.84375 C 10.769531 -7.382812 10.25 -6.382812 9.875 -5.84375 L 6.578125 -7.9375 C 7.515625 -9.125 8.109375 -10.113281 8.359375 -10.90625 C 6.679688 -10.195312 5.320312 -9.050781 4.28125 -7.46875 C 3.34375 -6.039062 2.875 -4.445312 2.875 -2.6875 Z M 2.875 -2.6875 "/></g></g></g><g fill="#ff5055" fill-opacity="0.302"><g transform="translate(60.80188, 31.428211)"><g><path d="M 15.125 -3.421875 C 12.75 -1.835938 10.316406 -0.460938 7.828125 0.703125 L 4.5625 -1.59375 C 4.03125 -3.125 3.675781 -4.601562 3.5 -6.03125 C 2.613281 -4.007812 1.734375 -1.765625 0.859375 0.703125 L -2.25 -1.3125 C -0.726562 -5.382812 1.351562 -9.75 4 -14.40625 C 4.832031 -15.875 5.679688 -17.285156 6.546875 -18.640625 L 9.25 -16.625 C 7.488281 -14.03125 5.84375 -11.109375 4.3125 -7.859375 C 6.644531 -10.035156 9.0625 -12.019531 11.5625 -13.8125 L 14.234375 -11.328125 C 11.023438 -9.296875 8.550781 -7.648438 6.8125 -6.390625 C 7.113281 -5.554688 7.554688 -4.539062 8.140625 -3.34375 C 10.359375 -4.09375 12.492188 -5 14.546875 -6.0625 Z M 15.125 -3.421875 "/></g></g></g><g fill="#ff5055" fill-opacity="0.302"><g transform="translate(75.213236, 31.428211)"><g><path d="M 10.828125 -4.046875 C 11.941406 -4.335938 13.664062 -5.007812 16 -6.0625 L 16.546875 -3.421875 C 14.378906 -2.328125 12.6875 -1.570312 11.46875 -1.15625 C 9.707031 -0.570312 7.222656 0.046875 4.015625 0.703125 L 1.3125 -1.46875 L 0.625 0.703125 L -2.25 -1.546875 C -1.375 -4.273438 0.503906 -8.25 3.390625 -13.46875 C 4.597656 -15.625 5.632812 -17.347656 6.5 -18.640625 L 9.21875 -16.625 C 8.445312 -15.507812 7.203125 -13.519531 5.484375 -10.65625 C 6.515625 -11.59375 7.671875 -12.425781 8.953125 -13.15625 L 13.03125 -9.96875 C 12.726562 -7.894531 11.992188 -5.921875 10.828125 -4.046875 Z M 3.03125 -2.8125 C 3.9375 -2.8125 4.648438 -2.890625 5.171875 -3.046875 C 5.691406 -3.210938 6.078125 -3.378906 6.328125 -3.546875 C 6.578125 -3.722656 6.875 -4.046875 7.21875 -4.515625 C 7.570312 -4.984375 7.898438 -5.515625 8.203125 -6.109375 C 8.859375 -7.460938 9.25 -8.742188 9.375 -9.953125 C 8.289062 -9.566406 7.242188 -9.0625 6.234375 -8.4375 C 5.222656 -7.820312 4.398438 -7.164062 3.765625 -6.46875 C 3.328125 -5.320312 3.082031 -4.101562 3.03125 -2.8125 Z M 3.03125 -2.8125 "/></g></g></g><g fill="#ff5055" fill-opacity="0.302"><g transform="translate(91.086618, 31.428211)"><g><path d="M 6.34375 -14.78125 C 5.945312 -15.195312 5.75 -15.703125 5.75 -16.296875 C 5.75 -16.890625 5.953125 -17.390625 6.359375 -17.796875 C 6.765625 -18.203125 7.265625 -18.40625 7.859375 -18.40625 C 8.453125 -18.40625 8.953125 -18.203125 9.359375 -17.796875 C 9.765625 -17.390625 9.96875 -16.890625 9.96875 -16.296875 C 9.96875 -15.703125 9.765625 -15.195312 9.359375 -14.78125 C 8.953125 -14.375 8.453125 -14.171875 7.859375 -14.171875 C 7.265625 -14.171875 6.757812 -14.375 6.34375 -14.78125 Z M 2.40625 -3.296875 C 4.175781 -3.828125 6.304688 -4.75 8.796875 -6.0625 L 9.34375 -3.421875 C 7.65625 -2.328125 5.617188 -1.253906 3.234375 -0.203125 C 2.429688 0.140625 1.648438 0.441406 0.890625 0.703125 L -2.109375 -2.0625 C -1.253906 -4.394531 0.273438 -7.300781 2.484375 -10.78125 C 3.140625 -11.820312 3.78125 -12.738281 4.40625 -13.53125 L 7 -11.625 C 5.726562 -9.875 4.492188 -7.773438 3.296875 -5.328125 C 2.941406 -4.597656 2.644531 -3.921875 2.40625 -3.296875 Z M 2.40625 -3.296875 "/></g></g></g><g fill="#ff5055" fill-opacity="0.302"><g transform="translate(99.754316, 31.428211)"><g><path d="M 6.5 -11.546875 C 8.113281 -11.710938 9.304688 -11.898438 10.078125 -12.109375 L 10.671875 -9.296875 C 9.140625 -8.910156 7.191406 -8.679688 4.828125 -8.609375 C 3.765625 -6.523438 2.972656 -4.628906 2.453125 -2.921875 C 3.859375 -3.171875 5.363281 -3.523438 6.96875 -3.984375 C 8.570312 -4.441406 10.179688 -5.132812 11.796875 -6.0625 L 12.34375 -3.421875 C 10.757812 -2.328125 8.953125 -1.382812 6.921875 -0.59375 C 4.921875 0.164062 3.144531 0.597656 1.59375 0.703125 L -1.640625 -2.296875 C -0.617188 -5.710938 1.128906 -9.304688 3.609375 -13.078125 C 4.367188 -14.265625 5.1875 -15.40625 6.0625 -16.5 L 8.375 -14.359375 C 7.695312 -13.421875 7.070312 -12.484375 6.5 -11.546875 Z M 6.5 -11.546875 "/></g></g></g><g fill="#ff5055" fill-opacity="0.302"><g transform="translate(111.424386, 31.428211)"><g><path d="M 5.25 -5.046875 C 4.425781 -5.046875 3.78125 -5.101562 3.3125 -5.21875 C 3.03125 -4.539062 2.859375 -3.695312 2.796875 -2.6875 C 5.785156 -2.863281 8.675781 -3.535156 11.46875 -4.703125 C 12.40625 -5.085938 13.304688 -5.539062 14.171875 -6.0625 L 14.71875 -3.421875 C 13.101562 -2.390625 11.191406 -1.484375 8.984375 -0.703125 C 6.628906 0.128906 4.410156 0.597656 2.328125 0.703125 L -0.90625 -2.296875 C -0.90625 -4.703125 -0.253906 -6.894531 1.046875 -8.875 C 1.984375 -10.25 3.046875 -11.335938 4.234375 -12.140625 C 5.429688 -12.941406 6.578125 -13.515625 7.671875 -13.859375 L 12.09375 -10.203125 C 11.65625 -8.398438 10.828125 -7.085938 9.609375 -6.265625 C 8.390625 -5.453125 6.9375 -5.046875 5.25 -5.046875 Z M 4.40625 -7.578125 C 5.414062 -7.578125 6.296875 -7.851562 7.046875 -8.40625 C 7.921875 -9.070312 8.359375 -9.992188 8.359375 -11.171875 C 6.597656 -10.210938 5.28125 -9.015625 4.40625 -7.578125 Z M 4.40625 -7.578125 "/></g></g></g><g fill="#ff5055" fill-opacity="0.302"><g transform="translate(125.470236, 31.428211)"><g><path d="M 3.53125 0.90625 C 2.269531 0.0703125 1.171875 -0.71875 0.234375 -1.46875 C -0.617188 -2.207031 -1.550781 -3.101562 -2.5625 -4.15625 L 0.125 -6.0625 C 1.34375 -4.789062 2.238281 -3.941406 2.8125 -3.515625 C 3.394531 -3.085938 3.910156 -2.722656 4.359375 -2.421875 C 4.847656 -2.472656 5.640625 -2.640625 6.734375 -2.921875 L 2.40625 -7.03125 C 2 -7.445312 1.6875 -7.816406 1.46875 -8.140625 C 2.125 -9.328125 3.257812 -10.554688 4.875 -11.828125 C 6.394531 -13.015625 7.84375 -13.804688 9.21875 -14.203125 L 13.390625 -10.828125 C 13.097656 -9.648438 12.40625 -8.085938 11.3125 -6.140625 L 8.515625 -8.21875 C 8.878906 -8.757812 9.195312 -9.34375 9.46875 -9.96875 C 9.75 -10.59375 9.914062 -11.015625 9.96875 -11.234375 C 9 -10.859375 8 -10.195312 6.96875 -9.25 C 6.601562 -8.894531 6.273438 -8.535156 5.984375 -8.171875 C 6.304688 -7.671875 6.8125 -7.140625 7.5 -6.578125 C 8.644531 -5.585938 9.609375 -4.734375 10.390625 -4.015625 C 12.328125 -4.679688 13.960938 -5.363281 15.296875 -6.0625 L 15.84375 -3.421875 C 14.457031 -2.429688 12.5 -1.507812 9.96875 -0.65625 C 7.632812 0.125 5.488281 0.644531 3.53125 0.90625 Z M 3.53125 0.90625 "/></g></g></g><g fill="#ff5055" fill-opacity="0.502"><g transform="translate(4.822088, 30.274228)"><g><path d="M 3.3125 -3.234375 C 6.0625 -3.429688 8.566406 -4.085938 10.828125 -5.203125 L 11.859375 -2.21875 C 9.003906 -0.457031 5.703125 0.554688 1.953125 0.828125 L -1.359375 -2.25 C -0.578125 -5.65625 0.8125 -8.742188 2.8125 -11.515625 C 5.09375 -14.628906 7.863281 -16.875 11.125 -18.25 L 16.078125 -14.671875 C 15.628906 -13.191406 14.8125 -11.476562 13.625 -9.53125 C 13.300781 -8.988281 12.988281 -8.507812 12.6875 -8.09375 L 9.65625 -9.765625 C 10.84375 -11.796875 11.632812 -13.507812 12.03125 -14.90625 C 9.851562 -13.832031 7.929688 -12.179688 6.265625 -9.953125 C 4.660156 -7.773438 3.675781 -5.535156 3.3125 -3.234375 Z M 3.3125 -3.234375 "/></g></g></g><g fill="#ff5055" fill-opacity="0.502"><g transform="translate(20.695465, 30.274228)"><g><path d="M 4.90625 -9.109375 C 6.53125 -10.347656 8.394531 -11.523438 10.5 -12.640625 L 13.65625 -10.15625 C 13.082031 -7.6875 12.070312 -5.457031 10.625 -3.46875 C 12.363281 -4.0625 14.335938 -4.925781 16.546875 -6.0625 L 17.109375 -3.421875 C 16.390625 -2.953125 15.300781 -2.351562 13.84375 -1.625 C 11.332031 -0.382812 9.597656 0.390625 8.640625 0.703125 L 5.40625 -1.59375 C 6.445312 -2.84375 7.320312 -4.082031 8.03125 -5.3125 C 8.738281 -6.539062 9.195312 -7.613281 9.40625 -8.53125 C 7.125 -7.40625 5.617188 -6.609375 4.890625 -6.140625 C 4.171875 -5.671875 3.523438 -5.234375 2.953125 -4.828125 C 2.097656 -2.722656 1.441406 -0.878906 0.984375 0.703125 L -2.109375 -1.3125 C -1.535156 -3.269531 -0.273438 -6.207031 1.671875 -10.125 C 3.441406 -13.71875 5.035156 -16.554688 6.453125 -18.640625 L 9.109375 -16.625 C 7.648438 -14.257812 6.25 -11.753906 4.90625 -9.109375 Z M 4.90625 -9.109375 "/></g></g></g><g fill="#ff5055" fill-opacity="0.502"><g transform="translate(37.117101, 30.274228)"><g><path d="M 6.34375 -14.78125 C 5.945312 -15.195312 5.75 -15.703125 5.75 -16.296875 C 5.75 -16.890625 5.953125 -17.390625 6.359375 -17.796875 C 6.765625 -18.203125 7.265625 -18.40625 7.859375 -18.40625 C 8.453125 -18.40625 8.953125 -18.203125 9.359375 -17.796875 C 9.765625 -17.390625 9.96875 -16.890625 9.96875 -16.296875 C 9.96875 -15.703125 9.765625 -15.195312 9.359375 -14.78125 C 8.953125 -14.375 8.453125 -14.171875 7.859375 -14.171875 C 7.265625 -14.171875 6.757812 -14.375 6.34375 -14.78125 Z M 2.40625 -3.296875 C 4.175781 -3.828125 6.304688 -4.75 8.796875 -6.0625 L 9.34375 -3.421875 C 7.65625 -2.328125 5.617188 -1.253906 3.234375 -0.203125 C 2.429688 0.140625 1.648438 0.441406 0.890625 0.703125 L -2.109375 -2.0625 C -1.253906 -4.394531 0.273438 -7.300781 2.484375 -10.78125 C 3.140625 -11.820312 3.78125 -12.738281 4.40625 -13.53125 L 7 -11.625 C 5.726562 -9.875 4.492188 -7.773438 3.296875 -5.328125 C 2.941406 -4.597656 2.644531 -3.921875 2.40625 -3.296875 Z M 2.40625 -3.296875 "/></g></g></g><g fill="#ff5055" fill-opacity="0.502"><g transform="translate(45.7848, 30.274228)"><g><path d="M 2.875 -2.6875 C 7.132812 -3.25 10.84375 -4.375 14 -6.0625 L 14.5625 -3.421875 C 11.882812 -1.734375 8.910156 -0.503906 5.640625 0.265625 C 4.546875 0.503906 3.46875 0.648438 2.40625 0.703125 L -0.828125 -2.296875 C -0.828125 -3.535156 -0.75 -4.492188 -0.59375 -5.171875 C 0.0820312 -8.046875 1.742188 -10.359375 4.390625 -12.109375 C 5.566406 -12.898438 6.765625 -13.484375 7.984375 -13.859375 L 12.171875 -10.75 C 12.078125 -10.351562 11.832031 -9.71875 11.4375 -8.84375 C 10.769531 -7.382812 10.25 -6.382812 9.875 -5.84375 L 6.578125 -7.9375 C 7.515625 -9.125 8.109375 -10.113281 8.359375 -10.90625 C 6.679688 -10.195312 5.320312 -9.050781 4.28125 -7.46875 C 3.34375 -6.039062 2.875 -4.445312 2.875 -2.6875 Z M 2.875 -2.6875 "/></g></g></g><g fill="#ff5055" fill-opacity="0.502"><g transform="translate(59.647897, 30.274228)"><g><path d="M 15.125 -3.421875 C 12.75 -1.835938 10.316406 -0.460938 7.828125 0.703125 L 4.5625 -1.59375 C 4.03125 -3.125 3.675781 -4.601562 3.5 -6.03125 C 2.613281 -4.007812 1.734375 -1.765625 0.859375 0.703125 L -2.25 -1.3125 C -0.726562 -5.382812 1.351562 -9.75 4 -14.40625 C 4.832031 -15.875 5.679688 -17.285156 6.546875 -18.640625 L 9.25 -16.625 C 7.488281 -14.03125 5.84375 -11.109375 4.3125 -7.859375 C 6.644531 -10.035156 9.0625 -12.019531 11.5625 -13.8125 L 14.234375 -11.328125 C 11.023438 -9.296875 8.550781 -7.648438 6.8125 -6.390625 C 7.113281 -5.554688 7.554688 -4.539062 8.140625 -3.34375 C 10.359375 -4.09375 12.492188 -5 14.546875 -6.0625 Z M 15.125 -3.421875 "/></g></g></g><g fill="#ff5055" fill-opacity="0.502"><g transform="translate(74.059254, 30.274228)"><g><path d="M 10.828125 -4.046875 C 11.941406 -4.335938 13.664062 -5.007812 16 -6.0625 L 16.546875 -3.421875 C 14.378906 -2.328125 12.6875 -1.570312 11.46875 -1.15625 C 9.707031 -0.570312 7.222656 0.046875 4.015625 0.703125 L 1.3125 -1.46875 L 0.625 0.703125 L -2.25 -1.546875 C -1.375 -4.273438 0.503906 -8.25 3.390625 -13.46875 C 4.597656 -15.625 5.632812 -17.347656 6.5 -18.640625 L 9.21875 -16.625 C 8.445312 -15.507812 7.203125 -13.519531 5.484375 -10.65625 C 6.515625 -11.59375 7.671875 -12.425781 8.953125 -13.15625 L 13.03125 -9.96875 C 12.726562 -7.894531 11.992188 -5.921875 10.828125 -4.046875 Z M 3.03125 -2.8125 C 3.9375 -2.8125 4.648438 -2.890625 5.171875 -3.046875 C 5.691406 -3.210938 6.078125 -3.378906 6.328125 -3.546875 C 6.578125 -3.722656 6.875 -4.046875 7.21875 -4.515625 C 7.570312 -4.984375 7.898438 -5.515625 8.203125 -6.109375 C 8.859375 -7.460938 9.25 -8.742188 9.375 -9.953125 C 8.289062 -9.566406 7.242188 -9.0625 6.234375 -8.4375 C 5.222656 -7.820312 4.398438 -7.164062 3.765625 -6.46875 C 3.328125 -5.320312 3.082031 -4.101562 3.03125 -2.8125 Z M 3.03125 -2.8125 "/></g></g></g><g fill="#ff5055" fill-opacity="0.502"><g transform="translate(89.932635, 30.274228)"><g><path d="M 6.34375 -14.78125 C 5.945312 -15.195312 5.75 -15.703125 5.75 -16.296875 C 5.75 -16.890625 5.953125 -17.390625 6.359375 -17.796875 C 6.765625 -18.203125 7.265625 -18.40625 7.859375 -18.40625 C 8.453125 -18.40625 8.953125 -18.203125 9.359375 -17.796875 C 9.765625 -17.390625 9.96875 -16.890625 9.96875 -16.296875 C 9.96875 -15.703125 9.765625 -15.195312 9.359375 -14.78125 C 8.953125 -14.375 8.453125 -14.171875 7.859375 -14.171875 C 7.265625 -14.171875 6.757812 -14.375 6.34375 -14.78125 Z M 2.40625 -3.296875 C 4.175781 -3.828125 6.304688 -4.75 8.796875 -6.0625 L 9.34375 -3.421875 C 7.65625 -2.328125 5.617188 -1.253906 3.234375 -0.203125 C 2.429688 0.140625 1.648438 0.441406 0.890625 0.703125 L -2.109375 -2.0625 C -1.253906 -4.394531 0.273438 -7.300781 2.484375 -10.78125 C 3.140625 -11.820312 3.78125 -12.738281 4.40625 -13.53125 L 7 -11.625 C 5.726562 -9.875 4.492188 -7.773438 3.296875 -5.328125 C 2.941406 -4.597656 2.644531 -3.921875 2.40625 -3.296875 Z M 2.40625 -3.296875 "/></g></g></g><g fill="#ff5055" fill-opacity="0.502"><g transform="translate(98.600334, 30.274228)"><g><path d="M 6.5 -11.546875 C 8.113281 -11.710938 9.304688 -11.898438 10.078125 -12.109375 L 10.671875 -9.296875 C 9.140625 -8.910156 7.191406 -8.679688 4.828125 -8.609375 C 3.765625 -6.523438 2.972656 -4.628906 2.453125 -2.921875 C 3.859375 -3.171875 5.363281 -3.523438 6.96875 -3.984375 C 8.570312 -4.441406 10.179688 -5.132812 11.796875 -6.0625 L 12.34375 -3.421875 C 10.757812 -2.328125 8.953125 -1.382812 6.921875 -0.59375 C 4.921875 0.164062 3.144531 0.597656 1.59375 0.703125 L -1.640625 -2.296875 C -0.617188 -5.710938 1.128906 -9.304688 3.609375 -13.078125 C 4.367188 -14.265625 5.1875 -15.40625 6.0625 -16.5 L 8.375 -14.359375 C 7.695312 -13.421875 7.070312 -12.484375 6.5 -11.546875 Z M 6.5 -11.546875 "/></g></g></g><g fill="#ff5055" fill-opacity="0.502"><g transform="translate(110.270403, 30.274228)"><g><path d="M 5.25 -5.046875 C 4.425781 -5.046875 3.78125 -5.101562 3.3125 -5.21875 C 3.03125 -4.539062 2.859375 -3.695312 2.796875 -2.6875 C 5.785156 -2.863281 8.675781 -3.535156 11.46875 -4.703125 C 12.40625 -5.085938 13.304688 -5.539062 14.171875 -6.0625 L 14.71875 -3.421875 C 13.101562 -2.390625 11.191406 -1.484375 8.984375 -0.703125 C 6.628906 0.128906 4.410156 0.597656 2.328125 0.703125 L -0.90625 -2.296875 C -0.90625 -4.703125 -0.253906 -6.894531 1.046875 -8.875 C 1.984375 -10.25 3.046875 -11.335938 4.234375 -12.140625 C 5.429688 -12.941406 6.578125 -13.515625 7.671875 -13.859375 L 12.09375 -10.203125 C 11.65625 -8.398438 10.828125 -7.085938 9.609375 -6.265625 C 8.390625 -5.453125 6.9375 -5.046875 5.25 -5.046875 Z M 4.40625 -7.578125 C 5.414062 -7.578125 6.296875 -7.851562 7.046875 -8.40625 C 7.921875 -9.070312 8.359375 -9.992188 8.359375 -11.171875 C 6.597656 -10.210938 5.28125 -9.015625 4.40625 -7.578125 Z M 4.40625 -7.578125 "/></g></g></g><g fill="#ff5055" fill-opacity="0.502"><g transform="translate(124.316253, 30.274228)"><g><path d="M 3.53125 0.90625 C 2.269531 0.0703125 1.171875 -0.71875 0.234375 -1.46875 C -0.617188 -2.207031 -1.550781 -3.101562 -2.5625 -4.15625 L 0.125 -6.0625 C 1.34375 -4.789062 2.238281 -3.941406 2.8125 -3.515625 C 3.394531 -3.085938 3.910156 -2.722656 4.359375 -2.421875 C 4.847656 -2.472656 5.640625 -2.640625 6.734375 -2.921875 L 2.40625 -7.03125 C 2 -7.445312 1.6875 -7.816406 1.46875 -8.140625 C 2.125 -9.328125 3.257812 -10.554688 4.875 -11.828125 C 6.394531 -13.015625 7.84375 -13.804688 9.21875 -14.203125 L 13.390625 -10.828125 C 13.097656 -9.648438 12.40625 -8.085938 11.3125 -6.140625 L 8.515625 -8.21875 C 8.878906 -8.757812 9.195312 -9.34375 9.46875 -9.96875 C 9.75 -10.59375 9.914062 -11.015625 9.96875 -11.234375 C 9 -10.859375 8 -10.195312 6.96875 -9.25 C 6.601562 -8.894531 6.273438 -8.535156 5.984375 -8.171875 C 6.304688 -7.671875 6.8125 -7.140625 7.5 -6.578125 C 8.644531 -5.585938 9.609375 -4.734375 10.390625 -4.015625 C 12.328125 -4.679688 13.960938 -5.363281 15.296875 -6.0625 L 15.84375 -3.421875 C 14.457031 -2.429688 12.5 -1.507812 9.96875 -0.65625 C 7.632812 0.125 5.488281 0.644531 3.53125 0.90625 Z M 3.53125 0.90625 "/></g></g></g><g fill="#ffd200" fill-opacity="1"><g transform="translate(3.668105, 29.120246)"><g><path d="M 3.3125 -3.234375 C 6.0625 -3.429688 8.566406 -4.085938 10.828125 -5.203125 L 11.859375 -2.21875 C 9.003906 -0.457031 5.703125 0.554688 1.953125 0.828125 L -1.359375 -2.25 C -0.578125 -5.65625 0.8125 -8.742188 2.8125 -11.515625 C 5.09375 -14.628906 7.863281 -16.875 11.125 -18.25 L 16.078125 -14.671875 C 15.628906 -13.191406 14.8125 -11.476562 13.625 -9.53125 C 13.300781 -8.988281 12.988281 -8.507812 12.6875 -8.09375 L 9.65625 -9.765625 C 10.84375 -11.796875 11.632812 -13.507812 12.03125 -14.90625 C 9.851562 -13.832031 7.929688 -12.179688 6.265625 -9.953125 C 4.660156 -7.773438 3.675781 -5.535156 3.3125 -3.234375 Z M 3.3125 -3.234375 "/></g></g></g><g fill="#ffd200" fill-opacity="1"><g transform="translate(19.541482, 29.120246)"><g><path d="M 4.90625 -9.109375 C 6.53125 -10.347656 8.394531 -11.523438 10.5 -12.640625 L 13.65625 -10.15625 C 13.082031 -7.6875 12.070312 -5.457031 10.625 -3.46875 C 12.363281 -4.0625 14.335938 -4.925781 16.546875 -6.0625 L 17.109375 -3.421875 C 16.390625 -2.953125 15.300781 -2.351562 13.84375 -1.625 C 11.332031 -0.382812 9.597656 0.390625 8.640625 0.703125 L 5.40625 -1.59375 C 6.445312 -2.84375 7.320312 -4.082031 8.03125 -5.3125 C 8.738281 -6.539062 9.195312 -7.613281 9.40625 -8.53125 C 7.125 -7.40625 5.617188 -6.609375 4.890625 -6.140625 C 4.171875 -5.671875 3.523438 -5.234375 2.953125 -4.828125 C 2.097656 -2.722656 1.441406 -0.878906 0.984375 0.703125 L -2.109375 -1.3125 C -1.535156 -3.269531 -0.273438 -6.207031 1.671875 -10.125 C 3.441406 -13.71875 5.035156 -16.554688 6.453125 -18.640625 L 9.109375 -16.625 C 7.648438 -14.257812 6.25 -11.753906 4.90625 -9.109375 Z M 4.90625 -9.109375 "/></g></g></g><g fill="#ffd200" fill-opacity="1"><g transform="translate(35.963119, 29.120246)"><g><path d="M 6.34375 -14.78125 C 5.945312 -15.195312 5.75 -15.703125 5.75 -16.296875 C 5.75 -16.890625 5.953125 -17.390625 6.359375 -17.796875 C 6.765625 -18.203125 7.265625 -18.40625 7.859375 -18.40625 C 8.453125 -18.40625 8.953125 -18.203125 9.359375 -17.796875 C 9.765625 -17.390625 9.96875 -16.890625 9.96875 -16.296875 C 9.96875 -15.703125 9.765625 -15.195312 9.359375 -14.78125 C 8.953125 -14.375 8.453125 -14.171875 7.859375 -14.171875 C 7.265625 -14.171875 6.757812 -14.375 6.34375 -14.78125 Z M 2.40625 -3.296875 C 4.175781 -3.828125 6.304688 -4.75 8.796875 -6.0625 L 9.34375 -3.421875 C 7.65625 -2.328125 5.617188 -1.253906 3.234375 -0.203125 C 2.429688 0.140625 1.648438 0.441406 0.890625 0.703125 L -2.109375 -2.0625 C -1.253906 -4.394531 0.273438 -7.300781 2.484375 -10.78125 C 3.140625 -11.820312 3.78125 -12.738281 4.40625 -13.53125 L 7 -11.625 C 5.726562 -9.875 4.492188 -7.773438 3.296875 -5.328125 C 2.941406 -4.597656 2.644531 -3.921875 2.40625 -3.296875 Z M 2.40625 -3.296875 "/></g></g></g><g fill="#ffd200" fill-opacity="1"><g transform="translate(44.630817, 29.120246)"><g><path d="M 2.875 -2.6875 C 7.132812 -3.25 10.84375 -4.375 14 -6.0625 L 14.5625 -3.421875 C 11.882812 -1.734375 8.910156 -0.503906 5.640625 0.265625 C 4.546875 0.503906 3.46875 0.648438 2.40625 0.703125 L -0.828125 -2.296875 C -0.828125 -3.535156 -0.75 -4.492188 -0.59375 -5.171875 C 0.0820312 -8.046875 1.742188 -10.359375 4.390625 -12.109375 C 5.566406 -12.898438 6.765625 -13.484375 7.984375 -13.859375 L 12.171875 -10.75 C 12.078125 -10.351562 11.832031 -9.71875 11.4375 -8.84375 C 10.769531 -7.382812 10.25 -6.382812 9.875 -5.84375 L 6.578125 -7.9375 C 7.515625 -9.125 8.109375 -10.113281 8.359375 -10.90625 C 6.679688 -10.195312 5.320312 -9.050781 4.28125 -7.46875 C 3.34375 -6.039062 2.875 -4.445312 2.875 -2.6875 Z M 2.875 -2.6875 "/></g></g></g><g fill="#ffd200" fill-opacity="1"><g transform="translate(58.493914, 29.120246)"><g><path d="M 15.125 -3.421875 C 12.75 -1.835938 10.316406 -0.460938 7.828125 0.703125 L 4.5625 -1.59375 C 4.03125 -3.125 3.675781 -4.601562 3.5 -6.03125 C 2.613281 -4.007812 1.734375 -1.765625 0.859375 0.703125 L -2.25 -1.3125 C -0.726562 -5.382812 1.351562 -9.75 4 -14.40625 C 4.832031 -15.875 5.679688 -17.285156 6.546875 -18.640625 L 9.25 -16.625 C 7.488281 -14.03125 5.84375 -11.109375 4.3125 -7.859375 C 6.644531 -10.035156 9.0625 -12.019531 11.5625 -13.8125 L 14.234375 -11.328125 C 11.023438 -9.296875 8.550781 -7.648438 6.8125 -6.390625 C 7.113281 -5.554688 7.554688 -4.539062 8.140625 -3.34375 C 10.359375 -4.09375 12.492188 -5 14.546875 -6.0625 Z M 15.125 -3.421875 "/></g></g></g><g fill="#ffd200" fill-opacity="1"><g transform="translate(72.905271, 29.120246)"><g><path d="M 10.828125 -4.046875 C 11.941406 -4.335938 13.664062 -5.007812 16 -6.0625 L 16.546875 -3.421875 C 14.378906 -2.328125 12.6875 -1.570312 11.46875 -1.15625 C 9.707031 -0.570312 7.222656 0.046875 4.015625 0.703125 L 1.3125 -1.46875 L 0.625 0.703125 L -2.25 -1.546875 C -1.375 -4.273438 0.503906 -8.25 3.390625 -13.46875 C 4.597656 -15.625 5.632812 -17.347656 6.5 -18.640625 L 9.21875 -16.625 C 8.445312 -15.507812 7.203125 -13.519531 5.484375 -10.65625 C 6.515625 -11.59375 7.671875 -12.425781 8.953125 -13.15625 L 13.03125 -9.96875 C 12.726562 -7.894531 11.992188 -5.921875 10.828125 -4.046875 Z M 3.03125 -2.8125 C 3.9375 -2.8125 4.648438 -2.890625 5.171875 -3.046875 C 5.691406 -3.210938 6.078125 -3.378906 6.328125 -3.546875 C 6.578125 -3.722656 6.875 -4.046875 7.21875 -4.515625 C 7.570312 -4.984375 7.898438 -5.515625 8.203125 -6.109375 C 8.859375 -7.460938 9.25 -8.742188 9.375 -9.953125 C 8.289062 -9.566406 7.242188 -9.0625 6.234375 -8.4375 C 5.222656 -7.820312 4.398438 -7.164062 3.765625 -6.46875 C 3.328125 -5.320312 3.082031 -4.101562 3.03125 -2.8125 Z M 3.03125 -2.8125 "/></g></g></g><g fill="#ffd200" fill-opacity="1"><g transform="translate(88.778653, 29.120246)"><g><path d="M 6.34375 -14.78125 C 5.945312 -15.195312 5.75 -15.703125 5.75 -16.296875 C 5.75 -16.890625 5.953125 -17.390625 6.359375 -17.796875 C 6.765625 -18.203125 7.265625 -18.40625 7.859375 -18.40625 C 8.453125 -18.40625 8.953125 -18.203125 9.359375 -17.796875 C 9.765625 -17.390625 9.96875 -16.890625 9.96875 -16.296875 C 9.96875 -15.703125 9.765625 -15.195312 9.359375 -14.78125 C 8.953125 -14.375 8.453125 -14.171875 7.859375 -14.171875 C 7.265625 -14.171875 6.757812 -14.375 6.34375 -14.78125 Z M 2.40625 -3.296875 C 4.175781 -3.828125 6.304688 -4.75 8.796875 -6.0625 L 9.34375 -3.421875 C 7.65625 -2.328125 5.617188 -1.253906 3.234375 -0.203125 C 2.429688 0.140625 1.648438 0.441406 0.890625 0.703125 L -2.109375 -2.0625 C -1.253906 -4.394531 0.273438 -7.300781 2.484375 -10.78125 C 3.140625 -11.820312 3.78125 -12.738281 4.40625 -13.53125 L 7 -11.625 C 5.726562 -9.875 4.492188 -7.773438 3.296875 -5.328125 C 2.941406 -4.597656 2.644531 -3.921875 2.40625 -3.296875 Z M 2.40625 -3.296875 "/></g></g></g><g fill="#ffd200" fill-opacity="1"><g transform="translate(97.446351, 29.120246)"><g><path d="M 6.5 -11.546875 C 8.113281 -11.710938 9.304688 -11.898438 10.078125 -12.109375 L 10.671875 -9.296875 C 9.140625 -8.910156 7.191406 -8.679688 4.828125 -8.609375 C 3.765625 -6.523438 2.972656 -4.628906 2.453125 -2.921875 C 3.859375 -3.171875 5.363281 -3.523438 6.96875 -3.984375 C 8.570312 -4.441406 10.179688 -5.132812 11.796875 -6.0625 L 12.34375 -3.421875 C 10.757812 -2.328125 8.953125 -1.382812 6.921875 -0.59375 C 4.921875 0.164062 3.144531 0.597656 1.59375 0.703125 L -1.640625 -2.296875 C -0.617188 -5.710938 1.128906 -9.304688 3.609375 -13.078125 C 4.367188 -14.265625 5.1875 -15.40625 6.0625 -16.5 L 8.375 -14.359375 C 7.695312 -13.421875 7.070312 -12.484375 6.5 -11.546875 Z M 6.5 -11.546875 "/></g></g></g><g fill="#ffd200" fill-opacity="1"><g transform="translate(109.11642, 29.120246)"><g><path d="M 5.25 -5.046875 C 4.425781 -5.046875 3.78125 -5.101562 3.3125 -5.21875 C 3.03125 -4.539062 2.859375 -3.695312 2.796875 -2.6875 C 5.785156 -2.863281 8.675781 -3.535156 11.46875 -4.703125 C 12.40625 -5.085938 13.304688 -5.539062 14.171875 -6.0625 L 14.71875 -3.421875 C 13.101562 -2.390625 11.191406 -1.484375 8.984375 -0.703125 C 6.628906 0.128906 4.410156 0.597656 2.328125 0.703125 L -0.90625 -2.296875 C -0.90625 -4.703125 -0.253906 -6.894531 1.046875 -8.875 C 1.984375 -10.25 3.046875 -11.335938 4.234375 -12.140625 C 5.429688 -12.941406 6.578125 -13.515625 7.671875 -13.859375 L 12.09375 -10.203125 C 11.65625 -8.398438 10.828125 -7.085938 9.609375 -6.265625 C 8.390625 -5.453125 6.9375 -5.046875 5.25 -5.046875 Z M 4.40625 -7.578125 C 5.414062 -7.578125 6.296875 -7.851562 7.046875 -8.40625 C 7.921875 -9.070312 8.359375 -9.992188 8.359375 -11.171875 C 6.597656 -10.210938 5.28125 -9.015625 4.40625 -7.578125 Z M 4.40625 -7.578125 "/></g></g></g><g fill="#ffd200" fill-opacity="1"><g transform="translate(123.162271, 29.120246)"><g><path d="M 3.53125 0.90625 C 2.269531 0.0703125 1.171875 -0.71875 0.234375 -1.46875 C -0.617188 -2.207031 -1.550781 -3.101562 -2.5625 -4.15625 L 0.125 -6.0625 C 1.34375 -4.789062 2.238281 -3.941406 2.8125 -3.515625 C 3.394531 -3.085938 3.910156 -2.722656 4.359375 -2.421875 C 4.847656 -2.472656 5.640625 -2.640625 6.734375 -2.921875 L 2.40625 -7.03125 C 2 -7.445312 1.6875 -7.816406 1.46875 -8.140625 C 2.125 -9.328125 3.257812 -10.554688 4.875 -11.828125 C 6.394531 -13.015625 7.84375 -13.804688 9.21875 -14.203125 L 13.390625 -10.828125 C 13.097656 -9.648438 12.40625 -8.085938 11.3125 -6.140625 L 8.515625 -8.21875 C 8.878906 -8.757812 9.195312 -9.34375 9.46875 -9.96875 C 9.75 -10.59375 9.914062 -11.015625 9.96875 -11.234375 C 9 -10.859375 8 -10.195312 6.96875 -9.25 C 6.601562 -8.894531 6.273438 -8.535156 5.984375 -8.171875 C 6.304688 -7.671875 6.8125 -7.140625 7.5 -6.578125 C 8.644531 -5.585938 9.609375 -4.734375 10.390625 -4.015625 C 12.328125 -4.679688 13.960938 -5.363281 15.296875 -6.0625 L 15.84375 -3.421875 C 14.457031 -2.429688 12.5 -1.507812 9.96875 -0.65625 C 7.632812 0.125 5.488281 0.644531 3.53125 0.90625 Z M 3.53125 0.90625 "/></g></g></g></svg>